<?xml version="1.0" encoding="UTF-8"?>
<svg width="256px" height="256px" viewBox="0 0 256 256" version="1.1" xmlns="http://www.w3.org/2000/svg" xmlns:xlink="http://www.w3.org/1999/xlink">
    <title>logo_DF_256x256</title>
    <g id="logo_DF_256x256" stroke="none" stroke-width="1" fill="none" fill-rule="evenodd">
        <g id="编组" transform="translate(10.000000, 0.000000)">
            <path d="M0,214.016 L0,50.176 L106.297364,50.176 C146.496539,50.176 179.2,84.2088889 179.2,126.039221 C179.2,167.87039 146.496539,201.903279 106.297364,201.903279 L93.5315797,201.903279 L93.5315797,169.684664 L106.297364,169.684664 C129.328963,169.684664 148.06699,150.105736 148.06699,126.039221 C148.06699,101.97438 129.328963,82.3954521 106.297364,82.3954521 L31.1321714,82.3954521 L31.1321714,214.016 L0,214.016 Z" id="Fill-13" fill="#FA9B00"></path>
            <path d="M47.6107986,256 L47.6107986,102.105913 L78.7157497,102.105913 L78.7157497,223.68985 L115.092726,223.68985 C165.473678,223.68985 206.462211,180.76455 206.462211,128 C206.462211,75.236289 165.473678,32.3093115 115.092726,32.3093115 L40.96,32.3093115 L40.96,0 L115.092726,0 C182.625782,0 237.568,57.4207881 237.568,127.999161 C237.568,198.579212 182.625782,256 115.092726,256 L47.6107986,256 Z" id="Fill-15" fill="#242A47"></path>
        </g>
    </g>
</svg>