<?xml version="1.0" encoding="UTF-8"?>
<svg width="256px" height="256px" viewBox="0 0 256 256" version="1.1" xmlns="http://www.w3.org/2000/svg" xmlns:xlink="http://www.w3.org/1999/xlink">
    <title>logo_GOLDx_256x256</title>
    <g id="logo_GOLDx_256x256" stroke="none" stroke-width="1" fill="none" fill-rule="evenodd">
        <g id="编组" transform="translate(8.000000, 0.000000)" fill-rule="nonzero">
            <path d="M124.098076,185.142857 L32.8159477,185.142857 C14.7006049,185.122225 0.0202746053,170.182696 1.49949019e-12,151.747507 L1.49949019e-12,18.0121907 C1.49949019e-12,8.06433246 7.9244179,9.13554946e-14 17.6996828,9.13554946e-14 C27.4749477,9.13554946e-14 35.3993656,8.06433246 35.3993656,18.0121907 L35.3993656,149.139275 L124.102164,149.139275 C134.73869,149.139275 143.361299,140.364425 143.361299,129.540098 C143.361299,118.715771 134.73869,109.940921 124.102164,109.940921 L73.9626005,109.940921 C64.1873356,109.940921 56.2629177,101.876589 56.2629177,91.9287303 C56.2629177,81.9808721 64.1873356,73.9165396 73.9626005,73.9165396 L124.098076,73.9165396 C154.236589,73.9165396 178.758621,98.8756953 178.758621,129.542178 C178.758621,160.208661 154.236589,185.142857 124.098076,185.142857 Z" id="路径" fill="#FFBB3B"></path>
            <path d="M117.018284,257.142857 L16.9361887,257.142857 C7.59553354,257.142857 0.0234366936,249.118083 0.0234366936,239.219023 C0.0234366936,229.319963 7.59553354,221.29519 16.9361887,221.295189 L117.018284,221.295189 C165.264548,221.295189 204.51151,179.69782 204.51151,128.571429 C204.51151,77.4450373 165.260642,35.8476681 117.018284,35.8476681 L16.912753,35.8476681 C7.57209746,35.8476681 7.49745094e-13,27.8228943 7.49745094e-13,17.9238341 C7.49745094e-13,8.02477385 7.57209746,0 16.912753,0 L117.018284,0 C183.915448,0 238.344828,57.6791464 238.344828,128.579707 C238.344828,199.480269 183.915448,257.142857 117.018284,257.142857 Z" id="路径" fill="#FA9B00"></path>
        </g>
    </g>
</svg>