<?xml version="1.0" encoding="UTF-8"?>
<svg width="256px" height="256px" viewBox="0 0 256 256" version="1.1" xmlns="http://www.w3.org/2000/svg" xmlns:xlink="http://www.w3.org/1999/xlink">
    <title>logo_USDx_256x256</title>
    <g id="logo_USDx_256x256" stroke="none" stroke-width="1" fill="none" fill-rule="evenodd">
        <path d="M140.674496,0 C203.737197,0 254.860558,57.308135 254.860558,128 C254.860558,198.693081 203.737197,256 140.674496,256 L140.674496,256 L132.810365,256 L132.810365,193.965621 L132.810365,193.965621 L134.062736,193.949864 L134.062736,193.949864 L134.697236,193.938878 C172.712265,193.156033 179.355353,163.237744 176.8482,142.457103 C174.360566,121.82598 169.515428,118.468499 161.749978,114.247944 C158.484959,112.473904 152.457103,110.353021 146.264237,108.424981 L145.258953,108.114102 C137.044018,105.590449 128.785964,103.456172 126.518626,102.964767 C122.446671,102.081027 118.695702,96.0443693 128.406581,95.9118692 C132.730682,95.8527668 139.132586,95.5979158 145.699521,95.2872574 L146.859716,95.2318845 L146.859716,95.2318845 L148.021001,95.1755239 C148.408018,95.1565914 148.794827,95.1375228 149.18104,95.1183465 L150.337497,95.0605231 C161.491749,94.4989927 171.816544,93.8708807 171.816544,93.8708807 L171.816544,93.8708807 L172.445501,59.1193755 C162.745465,57.8575851 147.788217,59.0099717 132.810365,58.6161181 L132.810365,58.6161181 L132.810365,0 Z M105.607815,0 L105.607815,58.7413246 C85.0439629,59.797679 66.7605021,67.1022052 63.4925942,85.8442895 C57.1492116,122.216186 68.7597335,133.364432 78.867663,138.93187 C82.9103739,141.158358 90.1365525,143.408964 97.352591,145.308156 L98.4345215,145.590352 C108.88473,148.291863 118.977891,150.215047 118.977891,150.215047 C118.977891,150.215047 118.978552,150.21567 118.979845,150.216905 L119.042757,150.279629 C119.57649,150.82741 123.024832,154.70312 114.966753,155.857851 C110.130364,156.714519 101.338793,156.998945 92.412695,157.027179 L91.0389032,157.029544 C77.529647,157.033763 64.1609251,156.488746 64.1609251,156.488746 L64.1609251,156.488746 L62.8231109,191.749587 C62.8231109,191.749587 75.7772085,192.914129 105.607815,193.864727 L105.607815,193.864727 L105.607815,256 L29.045895,256 C16.3187995,256 6,245.115539 6,231.688047 L6,231.688047 L6,24.3119527 C6,10.8856768 16.3187995,0 29.045895,0 L29.045895,0 L105.607815,0 Z" id="形状结合" fill="#100E28"></path>
    </g>
</svg>